<svg width="100" height="40" viewBox="0 0 100 40" fill="none" xmlns="http://www.w3.org/2000/svg">
<path d="M14.1388 36.576C11.7068 36.576 9.53075 36.16 7.61075 35.328C5.72275 34.496 4.23475 33.28 3.14675 31.68C2.05875 30.08 1.48275 28.144 1.41875 25.872H8.28275C8.31475 26.864 8.55475 27.76 9.00275 28.56C9.48275 29.36 10.1548 30 11.0188 30.48C11.8828 30.928 12.9228 31.152 14.1388 31.152C15.1308 31.152 16.0108 31.008 16.7788 30.72C17.5468 30.4 18.1388 29.952 18.5548 29.376C19.0028 28.768 19.2268 28.016 19.2268 27.12C19.2268 26.16 18.9868 25.36 18.5068 24.72C18.0588 24.08 17.4188 23.536 16.5868 23.088C15.7548 22.608 14.8108 22.192 13.7548 21.84C12.7308 21.456 11.6588 21.072 10.5388 20.688C7.81875 19.76 5.73875 18.56 4.29875 17.088C2.89075 15.616 2.18675 13.68 2.18675 11.28C2.18675 9.328 2.66675 7.648 3.62675 6.24C4.58675 4.832 5.93075 3.744 7.65875 2.976C9.38675 2.208 11.3548 1.824 13.5628 1.824C15.8348 1.824 17.8348 2.224 19.5628 3.024C21.2908 3.792 22.6508 4.912 23.6428 6.384C24.6348 7.856 25.1628 9.584 25.2268 11.568H18.2668C18.2348 10.704 18.0108 9.952 17.5948 9.312C17.2108 8.672 16.6508 8.16 15.9148 7.776C15.2108 7.392 14.3788 7.2 13.4188 7.2C12.5868 7.168 11.8188 7.296 11.1148 7.584C10.4428 7.84 9.91475 8.24 9.53075 8.784C9.14675 9.296 8.95475 9.984 8.95475 10.848C8.95475 11.648 9.13075 12.32 9.48275 12.864C9.86675 13.408 10.3948 13.888 11.0668 14.304C11.7708 14.688 12.5868 15.072 13.5148 15.456C14.4748 15.808 15.5468 16.192 16.7308 16.608C18.4268 17.184 19.9788 17.872 21.3868 18.672C22.7948 19.44 23.9148 20.448 24.7468 21.696C25.6108 22.944 26.0428 24.56 26.0428 26.544C26.0428 28.336 25.5788 30 24.6508 31.536C23.7548 33.04 22.4268 34.256 20.6668 35.184C18.9068 36.112 16.7308 36.576 14.1388 36.576ZM27.5056 36L38.1616 2.4H48.7696L59.3776 36H52.5136L43.5856 6.192H43.3936L34.2736 36H27.5056ZM32.9296 26.352L34.6096 21.312H51.7456L53.4256 26.352H32.9296ZM61.3944 36V2.4H69.9384L79.4904 24.672H79.6824L89.1384 2.4H97.6344V36H91.1544V12.576H90.9624L82.8024 31.2H76.1304L68.0664 12.576H67.8744V36H61.3944Z" fill="url(#paint0_linear_247_8)"/>
<defs>
<linearGradient id="paint0_linear_247_8" x1="-0.847458" y1="7.5" x2="99.7011" y2="18.5701" gradientUnits="userSpaceOnUse">
<stop stop-color="#69FFBE"/>
<stop offset="1" stop-color="#69FFFA"/>
</linearGradient>
</defs>
</svg>
